<?xml version="1.0" encoding="UTF-8" standalone="no"?>
<!DOCTYPE svg PUBLIC "-//W3C//DTD SVG 1.1//EN"
 "http://www.w3.org/Graphics/SVG/1.1/DTD/svg11.dtd">
<!-- Generated by graphviz version 8.0.5 (0)
 -->
<!-- Pages: 1 -->
<svg width="712pt" height="657pt"
 viewBox="0.00 0.00 711.61 656.83" xmlns="http://www.w3.org/2000/svg" xmlns:xlink="http://www.w3.org/1999/xlink">
<g id="graph0" class="graph" transform="scale(1 1) rotate(0) translate(21.6 635.23)">
<polygon fill="white" stroke="none" points="-21.6,21.6 -21.6,-635.23 690.01,-635.23 690.01,21.6 -21.6,21.6"/>
<!-- StackSet -->
<g id="node1" class="node">
<title>StackSet</title>
<ellipse fill="lightgrey" stroke="black" cx="412.41" cy="-589.95" rx="65.41" ry="23.69"/>
<text text-anchor="middle" x="412.41" y="-581.8" font-family="Times,serif" font-size="22.00">StackSet</text>
</g>
<!-- screens -->
<g id="node2" class="node">
<title>screens</title>
<ellipse fill="lightgrey" stroke="black" cx="277.41" cy="-495.57" rx="56.92" ry="23.69"/>
<text text-anchor="middle" x="277.41" y="-487.42" font-family="Times,serif" font-size="22.00">screens</text>
</g>
<!-- StackSet&#45;&gt;screens -->
<g id="edge1" class="edge">
<title>StackSet&#45;&gt;screens</title>
<path fill="none" stroke="black" d="M382.44,-568.44C362.69,-554.92 336.64,-537.1 315.42,-522.58"/>
<polygon fill="black" stroke="black" points="317.59,-519.14 307.36,-516.38 313.63,-524.91 317.59,-519.14"/>
</g>
<!-- floating -->
<g id="node3" class="node">
<title>floating</title>
<ellipse fill="none" stroke="black" cx="412.41" cy="-495.57" rx="60.1" ry="23.69"/>
<text text-anchor="middle" x="412.41" y="-487.42" font-family="Times,serif" font-size="22.00">floating</text>
</g>
<!-- StackSet&#45;&gt;floating -->
<g id="edge2" class="edge">
<title>StackSet&#45;&gt;floating</title>
<path fill="none" stroke="black" d="M412.41,-566.11C412.41,-555.34 412.41,-542.27 412.41,-530.38"/>
<polygon fill="black" stroke="black" points="415.91,-530.46 412.41,-520.46 408.91,-530.46 415.91,-530.46"/>
</g>
<!-- hiddenWs -->
<g id="node4" class="node">
<title>hiddenWs</title>
<ellipse fill="none" stroke="black" cx="565.41" cy="-495.57" rx="74.95" ry="23.69"/>
<text text-anchor="middle" x="565.41" y="-487.42" font-family="Times,serif" font-size="22.00">hiddenWs</text>
</g>
<!-- StackSet&#45;&gt;hiddenWs -->
<g id="edge3" class="edge">
<title>StackSet&#45;&gt;hiddenWs</title>
<path fill="none" stroke="black" d="M445.23,-569.13C467.71,-555.56 497.75,-537.41 522.18,-522.67"/>
<polygon fill="black" stroke="black" points="523.83,-525.16 530.58,-516.99 520.21,-519.16 523.83,-525.16"/>
</g>
<!-- sUp -->
<g id="node5" class="node">
<title>sUp</title>
<ellipse fill="none" stroke="black" cx="169.41" cy="-401.19" rx="36.24" ry="23.69"/>
<text text-anchor="middle" x="169.41" y="-393.04" font-family="Times,serif" font-size="22.00">sUp</text>
</g>
<!-- screens&#45;&gt;sUp -->
<g id="edge4" class="edge">
<title>screens&#45;&gt;sUp</title>
<path fill="none" stroke="black" d="M253.17,-473.84C237.13,-460.12 216.01,-442.05 198.99,-427.49"/>
<polygon fill="black" stroke="black" points="201.87,-424.5 192,-420.66 197.32,-429.82 201.87,-424.5"/>
</g>
<!-- s2 -->
<g id="node6" class="node">
<title>s2</title>
<ellipse fill="lightgrey" stroke="black" cx="277.41" cy="-401.19" rx="27" ry="23.69"/>
<text text-anchor="middle" x="277.41" y="-393.04" font-family="Times,serif" font-size="22.00">s2</text>
</g>
<!-- screens&#45;&gt;s2 -->
<g id="edge5" class="edge">
<title>screens&#45;&gt;s2</title>
<path fill="none" stroke="black" d="M277.41,-471.73C277.41,-460.96 277.41,-447.9 277.41,-436.01"/>
<polygon fill="black" stroke="black" points="280.91,-436.08 277.41,-426.08 273.91,-436.08 280.91,-436.08"/>
</g>
<!-- sDown -->
<g id="node7" class="node">
<title>sDown</title>
<ellipse fill="none" stroke="black" cx="377.41" cy="-401.19" rx="55.33" ry="23.69"/>
<text text-anchor="middle" x="377.41" y="-393.04" font-family="Times,serif" font-size="22.00">sDown</text>
</g>
<!-- screens&#45;&gt;sDown -->
<g id="edge6" class="edge">
<title>screens&#45;&gt;sDown</title>
<path fill="none" stroke="black" d="M300.1,-473.61C313.91,-460.85 331.72,-444.39 346.77,-430.49"/>
<polygon fill="black" stroke="black" points="348.83,-433.43 353.8,-424.07 344.08,-428.29 348.83,-433.43"/>
</g>
<!-- w3 -->
<g id="node30" class="node">
<title>w3</title>
<ellipse fill="none" stroke="black" cx="486.41" cy="-401.19" rx="30.41" ry="23.69"/>
<text text-anchor="middle" x="486.41" y="-393.04" font-family="Times,serif" font-size="22.00">w3</text>
</g>
<!-- hiddenWs&#45;&gt;w3 -->
<g id="edge29" class="edge">
<title>hiddenWs&#45;&gt;w3</title>
<path fill="none" stroke="black" d="M546.28,-472.21C535.32,-459.38 521.46,-443.19 509.84,-429.6"/>
<polygon fill="black" stroke="black" points="512.1,-427.86 502.95,-422.53 506.78,-432.41 512.1,-427.86"/>
</g>
<!-- w4 -->
<g id="node31" class="node">
<title>w4</title>
<ellipse fill="none" stroke="black" cx="565.41" cy="-401.19" rx="30.41" ry="23.69"/>
<text text-anchor="middle" x="565.41" y="-393.04" font-family="Times,serif" font-size="22.00">w4</text>
</g>
<!-- hiddenWs&#45;&gt;w4 -->
<g id="edge30" class="edge">
<title>hiddenWs&#45;&gt;w4</title>
<path fill="none" stroke="black" d="M565.41,-471.73C565.41,-460.96 565.41,-447.9 565.41,-436.01"/>
<polygon fill="black" stroke="black" points="568.91,-436.08 565.41,-426.08 561.91,-436.08 568.91,-436.08"/>
</g>
<!-- ... -->
<g id="node32" class="node">
<title>...</title>
<ellipse fill="none" stroke="black" cx="640.41" cy="-401.19" rx="27" ry="23.69"/>
<text text-anchor="middle" x="640.41" y="-393.04" font-family="Times,serif" font-size="22.00">...</text>
</g>
<!-- hiddenWs&#45;&gt;... -->
<g id="edge31" class="edge">
<title>hiddenWs&#45;&gt;...</title>
<path fill="none" stroke="black" d="M583.56,-472.21C594.02,-459.33 607.23,-443.05 618.29,-429.43"/>
<polygon fill="black" stroke="black" points="621.61,-431.89 625.2,-421.92 616.18,-427.48 621.61,-431.89"/>
</g>
<!-- s1 -->
<g id="node8" class="node">
<title>s1</title>
<ellipse fill="none" stroke="black" cx="105.41" cy="-306.82" rx="27" ry="23.69"/>
<text text-anchor="middle" x="105.41" y="-298.67" font-family="Times,serif" font-size="22.00">s1</text>
</g>
<!-- sUp&#45;&gt;s1 -->
<g id="edge7" class="edge">
<title>sUp&#45;&gt;s1</title>
<path fill="none" stroke="black" d="M154.88,-379.23C146.05,-366.48 134.65,-350.03 125.02,-336.13"/>
<polygon fill="black" stroke="black" points="127.57,-334.66 119,-328.43 121.81,-338.65 127.57,-334.66"/>
</g>
<!-- r2 -->
<g id="node11" class="node">
<title>r2</title>
<ellipse fill="none" stroke="black" cx="240.41" cy="-306.82" rx="27" ry="23.69"/>
<text text-anchor="middle" x="240.41" y="-298.67" font-family="Times,serif" font-size="22.00">r2</text>
</g>
<!-- s2&#45;&gt;r2 -->
<g id="edge10" class="edge">
<title>s2&#45;&gt;r2</title>
<path fill="none" stroke="black" d="M268.64,-378.3C264.03,-366.8 258.3,-352.48 253.2,-339.76"/>
<polygon fill="black" stroke="black" points="256.08,-338.53 249.11,-330.55 249.58,-341.14 256.08,-338.53"/>
</g>
<!-- w2 -->
<g id="node12" class="node">
<title>w2</title>
<ellipse fill="lightgrey" stroke="black" cx="315.41" cy="-306.82" rx="30.41" ry="23.69"/>
<text text-anchor="middle" x="315.41" y="-298.67" font-family="Times,serif" font-size="22.00">w2</text>
</g>
<!-- s2&#45;&gt;w2 -->
<g id="edge11" class="edge">
<title>s2&#45;&gt;w2</title>
<path fill="none" stroke="black" d="M286.22,-378.77C290.99,-367.16 296.99,-352.59 302.3,-339.68"/>
<polygon fill="black" stroke="black" points="305.81,-341.35 306.38,-330.77 299.33,-338.68 305.81,-341.35"/>
</g>
<!-- id2 -->
<g id="node13" class="node">
<title>id2</title>
<ellipse fill="none" stroke="black" cx="395.41" cy="-306.82" rx="31.47" ry="23.69"/>
<text text-anchor="middle" x="395.41" y="-298.67" font-family="Times,serif" font-size="22.00">id2</text>
</g>
<!-- s2&#45;&gt;id2 -->
<g id="edge12" class="edge">
<title>s2&#45;&gt;id2</title>
<path fill="none" stroke="black" d="M297.16,-384.73C315.84,-370.1 344.13,-347.96 365.57,-331.18"/>
<polygon fill="black" stroke="black" points="367.28,-333.5 372.99,-324.58 362.96,-327.99 367.28,-333.5"/>
</g>
<!-- w1 -->
<g id="node9" class="node">
<title>w1</title>
<ellipse fill="none" stroke="black" cx="30.41" cy="-212.44" rx="30.41" ry="23.69"/>
<text text-anchor="middle" x="30.41" y="-204.29" font-family="Times,serif" font-size="22.00">w1</text>
</g>
<!-- s1&#45;&gt;w1 -->
<g id="edge8" class="edge">
<title>s1&#45;&gt;w1</title>
<path fill="none" stroke="black" d="M90.23,-287.12C79.57,-273.99 65.12,-256.19 53.09,-241.38"/>
<polygon fill="black" stroke="black" points="55.36,-239.62 46.34,-234.06 49.92,-244.03 55.36,-239.62"/>
</g>
<!-- .. -->
<g id="node10" class="node">
<title>..</title>
<ellipse fill="none" stroke="black" cx="105.41" cy="-212.44" rx="27" ry="23.69"/>
<text text-anchor="middle" x="105.41" y="-204.29" font-family="Times,serif" font-size="22.00">..</text>
</g>
<!-- s1&#45;&gt;.. -->
<g id="edge9" class="edge">
<title>s1&#45;&gt;..</title>
<path fill="none" stroke="black" d="M105.41,-282.98C105.41,-272.21 105.41,-259.14 105.41,-247.25"/>
<polygon fill="black" stroke="black" points="108.91,-247.33 105.41,-237.33 101.91,-247.33 108.91,-247.33"/>
</g>
<!-- layouts -->
<g id="node14" class="node">
<title>layouts</title>
<ellipse fill="none" stroke="black" cx="206.41" cy="-212.44" rx="56.39" ry="23.69"/>
<text text-anchor="middle" x="206.41" y="-204.29" font-family="Times,serif" font-size="22.00">layouts</text>
</g>
<!-- w2&#45;&gt;layouts -->
<g id="edge13" class="edge">
<title>w2&#45;&gt;layouts</title>
<path fill="none" stroke="black" d="M295.16,-288.66C279.36,-275.26 257.09,-256.4 238.81,-240.91"/>
<polygon fill="black" stroke="black" points="241.63,-237.86 231.74,-234.06 237.1,-243.2 241.63,-237.86"/>
</g>
<!-- idw -->
<g id="node15" class="node">
<title>idw</title>
<ellipse fill="none" stroke="black" cx="315.41" cy="-212.44" rx="34.65" ry="23.69"/>
<text text-anchor="middle" x="315.41" y="-204.29" font-family="Times,serif" font-size="22.00">idw</text>
</g>
<!-- w2&#45;&gt;idw -->
<g id="edge14" class="edge">
<title>w2&#45;&gt;idw</title>
<path fill="none" stroke="black" d="M315.41,-282.98C315.41,-272.21 315.41,-259.14 315.41,-247.25"/>
<polygon fill="black" stroke="black" points="318.91,-247.33 315.41,-237.33 311.91,-247.33 318.91,-247.33"/>
</g>
<!-- tag2 -->
<g id="node16" class="node">
<title>tag2</title>
<ellipse fill="none" stroke="black" cx="406.41" cy="-212.44" rx="38.36" ry="23.69"/>
<text text-anchor="middle" x="406.41" y="-204.29" font-family="Times,serif" font-size="22.00">tag2</text>
</g>
<!-- w2&#45;&gt;tag2 -->
<g id="edge15" class="edge">
<title>w2&#45;&gt;tag2</title>
<path fill="none" stroke="black" d="M333.38,-287.57C346.53,-274.22 364.58,-255.9 379.45,-240.81"/>
<polygon fill="black" stroke="black" points="381.36,-243.83 385.89,-234.25 376.38,-238.92 381.36,-243.83"/>
</g>
<!-- clients -->
<g id="node17" class="node">
<title>clients</title>
<ellipse fill="lightgrey" stroke="black" cx="514.41" cy="-212.44" rx="51.62" ry="23.69"/>
<text text-anchor="middle" x="514.41" y="-204.29" font-family="Times,serif" font-size="22.00">clients</text>
</g>
<!-- w2&#45;&gt;clients -->
<g id="edge16" class="edge">
<title>w2&#45;&gt;clients</title>
<path fill="none" stroke="black" d="M339.3,-291.73C344.55,-288.79 350.12,-285.78 355.41,-283.13 392,-264.79 434.51,-246.3 466.37,-232.98"/>
<polygon fill="black" stroke="black" points="467.42,-235.91 475.31,-228.84 464.74,-229.45 467.42,-235.91"/>
</g>
<!-- lUp -->
<g id="node18" class="node">
<title>lUp</title>
<ellipse fill="none" stroke="black" cx="126.41" cy="-118.06" rx="34.65" ry="23.69"/>
<text text-anchor="middle" x="126.41" y="-109.91" font-family="Times,serif" font-size="22.00">lUp</text>
</g>
<!-- layouts&#45;&gt;lUp -->
<g id="edge17" class="edge">
<title>layouts&#45;&gt;lUp</title>
<path fill="none" stroke="black" d="M187.85,-190.02C176.77,-177.22 162.56,-160.81 150.6,-147"/>
<polygon fill="black" stroke="black" points="152.69,-145.06 143.49,-139.8 147.39,-149.65 152.69,-145.06"/>
</g>
<!-- l1 -->
<g id="node19" class="node">
<title>l1</title>
<ellipse fill="none" stroke="black" cx="206.41" cy="-118.06" rx="27" ry="23.69"/>
<text text-anchor="middle" x="206.41" y="-109.91" font-family="Times,serif" font-size="22.00">l1</text>
</g>
<!-- layouts&#45;&gt;l1 -->
<g id="edge18" class="edge">
<title>layouts&#45;&gt;l1</title>
<path fill="none" stroke="black" d="M206.41,-188.61C206.41,-177.84 206.41,-164.77 206.41,-152.88"/>
<polygon fill="black" stroke="black" points="209.91,-152.96 206.41,-142.96 202.91,-152.96 209.91,-152.96"/>
</g>
<!-- lDown -->
<g id="node20" class="node">
<title>lDown</title>
<ellipse fill="none" stroke="black" cx="305.41" cy="-118.06" rx="53.74" ry="23.69"/>
<text text-anchor="middle" x="305.41" y="-109.91" font-family="Times,serif" font-size="22.00">lDown</text>
</g>
<!-- layouts&#45;&gt;lDown -->
<g id="edge19" class="edge">
<title>layouts&#45;&gt;lDown</title>
<path fill="none" stroke="black" d="M228.87,-190.48C242.54,-177.72 260.18,-161.26 275.08,-147.36"/>
<polygon fill="black" stroke="black" points="277.11,-150.32 282.03,-140.94 272.33,-145.21 277.11,-150.32"/>
</g>
<!-- up -->
<g id="node24" class="node">
<title>up</title>
<ellipse fill="none" stroke="black" cx="442.41" cy="-118.06" rx="27.22" ry="23.69"/>
<text text-anchor="middle" x="442.41" y="-109.91" font-family="Times,serif" font-size="22.00">up</text>
</g>
<!-- clients&#45;&gt;up -->
<g id="edge23" class="edge">
<title>clients&#45;&gt;up</title>
<path fill="none" stroke="black" d="M497.71,-190.02C487.69,-177.16 474.84,-160.67 464.05,-146.83"/>
<polygon fill="black" stroke="black" points="466.21,-144.91 457.3,-139.18 460.69,-149.22 466.21,-144.91"/>
</g>
<!-- c1 -->
<g id="node25" class="node">
<title>c1</title>
<ellipse fill="lightgrey" stroke="black" cx="514.41" cy="-118.06" rx="27" ry="23.69"/>
<text text-anchor="middle" x="514.41" y="-109.91" font-family="Times,serif" font-size="22.00">c1</text>
</g>
<!-- clients&#45;&gt;c1 -->
<g id="edge24" class="edge">
<title>clients&#45;&gt;c1</title>
<path fill="none" stroke="black" d="M514.41,-188.61C514.41,-177.84 514.41,-164.77 514.41,-152.88"/>
<polygon fill="black" stroke="black" points="517.91,-152.96 514.41,-142.96 510.91,-152.96 517.91,-152.96"/>
</g>
<!-- down -->
<g id="node26" class="node">
<title>down</title>
<ellipse fill="none" stroke="black" cx="605.41" cy="-118.06" rx="46.32" ry="23.69"/>
<text text-anchor="middle" x="605.41" y="-109.91" font-family="Times,serif" font-size="22.00">down</text>
</g>
<!-- clients&#45;&gt;down -->
<g id="edge25" class="edge">
<title>clients&#45;&gt;down</title>
<path fill="none" stroke="black" d="M535.05,-190.48C547.59,-177.75 563.76,-161.34 577.43,-147.46"/>
<polygon fill="black" stroke="black" points="579.63,-150.2 584.15,-140.62 574.64,-145.29 579.63,-150.2"/>
</g>
<!-- l2 -->
<g id="node21" class="node">
<title>l2</title>
<ellipse fill="none" stroke="black" cx="90.41" cy="-23.69" rx="27" ry="23.69"/>
<text text-anchor="middle" x="90.41" y="-15.54" font-family="Times,serif" font-size="22.00">l2</text>
</g>
<!-- lUp&#45;&gt;l2 -->
<g id="edge20" class="edge">
<title>lUp&#45;&gt;l2</title>
<path fill="none" stroke="black" d="M117.69,-94.7C113.24,-83.27 107.74,-69.16 102.85,-56.61"/>
<polygon fill="black" stroke="black" points="105.81,-55.57 98.92,-47.53 99.29,-58.11 105.81,-55.57"/>
</g>
<!-- l3 -->
<g id="node22" class="node">
<title>l3</title>
<ellipse fill="none" stroke="black" cx="162.41" cy="-23.69" rx="27" ry="23.69"/>
<text text-anchor="middle" x="162.41" y="-15.54" font-family="Times,serif" font-size="22.00">l3</text>
</g>
<!-- lUp&#45;&gt;l3 -->
<g id="edge21" class="edge">
<title>lUp&#45;&gt;l3</title>
<path fill="none" stroke="black" d="M135.12,-94.7C139.57,-83.27 145.07,-69.16 149.97,-56.61"/>
<polygon fill="black" stroke="black" points="153.53,-58.11 153.9,-47.53 147,-55.57 153.53,-58.11"/>
</g>
<!-- l4 -->
<g id="node23" class="node">
<title>l4</title>
<ellipse fill="none" stroke="black" cx="305.41" cy="-23.69" rx="27" ry="23.69"/>
<text text-anchor="middle" x="305.41" y="-15.54" font-family="Times,serif" font-size="22.00">l4</text>
</g>
<!-- lDown&#45;&gt;l4 -->
<g id="edge22" class="edge">
<title>lDown&#45;&gt;l4</title>
<path fill="none" stroke="black" d="M305.41,-94.23C305.41,-83.46 305.41,-70.39 305.41,-58.5"/>
<polygon fill="black" stroke="black" points="308.91,-58.58 305.41,-48.58 301.91,-58.58 308.91,-58.58"/>
</g>
<!-- c2 -->
<g id="node27" class="node">
<title>c2</title>
<ellipse fill="none" stroke="black" cx="442.41" cy="-23.69" rx="27" ry="23.69"/>
<text text-anchor="middle" x="442.41" y="-15.54" font-family="Times,serif" font-size="22.00">c2</text>
</g>
<!-- up&#45;&gt;c2 -->
<g id="edge26" class="edge">
<title>up&#45;&gt;c2</title>
<path fill="none" stroke="black" d="M442.41,-94.23C442.41,-83.46 442.41,-70.39 442.41,-58.5"/>
<polygon fill="black" stroke="black" points="445.91,-58.58 442.41,-48.58 438.91,-58.58 445.91,-58.58"/>
</g>
<!-- c3 -->
<g id="node28" class="node">
<title>c3</title>
<ellipse fill="none" stroke="black" cx="569.41" cy="-23.69" rx="27" ry="23.69"/>
<text text-anchor="middle" x="569.41" y="-15.54" font-family="Times,serif" font-size="22.00">c3</text>
</g>
<!-- down&#45;&gt;c3 -->
<g id="edge27" class="edge">
<title>down&#45;&gt;c3</title>
<path fill="none" stroke="black" d="M596.69,-94.7C592.24,-83.27 586.74,-69.16 581.85,-56.61"/>
<polygon fill="black" stroke="black" points="584.81,-55.57 577.92,-47.53 578.29,-58.11 584.81,-55.57"/>
</g>
<!-- c4 -->
<g id="node29" class="node">
<title>c4</title>
<ellipse fill="none" stroke="black" cx="641.41" cy="-23.69" rx="27" ry="23.69"/>
<text text-anchor="middle" x="641.41" y="-15.54" font-family="Times,serif" font-size="22.00">c4</text>
</g>
<!-- down&#45;&gt;c4 -->
<g id="edge28" class="edge">
<title>down&#45;&gt;c4</title>
<path fill="none" stroke="black" d="M614.12,-94.7C618.57,-83.27 624.07,-69.16 628.97,-56.61"/>
<polygon fill="black" stroke="black" points="632.53,-58.11 632.9,-47.53 626,-55.57 632.53,-58.11"/>
</g>
</g>
</svg>
